<svg xmlns="http://www.w3.org/2000/svg" width="256" height="256" viewBox="0 0 256 256"><path fill="#646cff" d="M208 20a12 12 0 0 1 12 12v24a12 12 0 0 1-12 12h-24a12 12 0 0 1-12-12V32a12 12 0 0 1 12-12h24zm-48 0a12 12 0 0 1 12 12v24a12 12 0 0 1-12 12h-24a12 12 0 0 1-12-12V32a12 12 0 0 1 12-12h24zm-48 0a12 12 0 0 1 12 12v24a12 12 0 0 1-12 12H88a12 12 0 0 1-12-12V32a12 12 0 0 1 12-12h24zM48 20a12 12 0 0 1 12 12v24a12 12 0 0 1-12 12H24a12 12 0 0 1-12-12V32a12 12 0 0 1 12-12h24zm160 60a12 12 0 0 1 12 12v24a12 12 0 0 1-12 12h-24a12 12 0 0 1-12-12V92a12 12 0 0 1 12-12h24zm-48 0a12 12 0 0 1 12 12v24a12 12 0 0 1-12 12h-24a12 12 0 0 1-12-12V92a12 12 0 0 1 12-12h24zm-48 0a12 12 0 0 1 12 12v24a12 12 0 0 1-12 12H88a12 12 0 0 1-12-12V92a12 12 0 0 1 12-12h24zM48 80a12 12 0 0 1 12 12v24a12 12 0 0 1-12 12H24a12 12 0 0 1-12-12V92a12 12 0 0 1 12-12h24zm160 60a12 12 0 0 1 12 12v24a12 12 0 0 1-12 12h-24a12 12 0 0 1-12-12v-24a12 12 0 0 1 12-12h24zm-48 0a12 12 0 0 1 12 12v24a12 12 0 0 1-12 12h-24a12 12 0 0 1-12-12v-24a12 12 0 0 1 12-12h24zm-48 0a12 12 0 0 1 12 12v24a12 12 0 0 1-12 12H88a12 12 0 0 1-12-12v-24a12 12 0 0 1 12-12h24zM48 140a12 12 0 0 1 12 12v24a12 12 0 0 1-12 12H24a12 12 0 0 1-12-12v-24a12 12 0 0 1 12-12h24zm160 60a12 12 0 0 1 12 12v24a12 12 0 0 1-12 12h-24a12 12 0 0 1-12-12v-24a12 12 0 0 1 12-12h24zm-48 0a12 12 0 0 1 12 12v24a12 12 0 0 1-12 12h-24a12 12 0 0 1-12-12v-24a12 12 0 0 1 12-12h24zm-48 0a12 12 0 0 1 12 12v24a12 12 0 0 1-12 12H88a12 12 0 0 1-12-12v-24a12 12 0 0 1 12-12h24zM48 200a12 12 0 0 1 12 12v24a12 12 0 0 1-12 12H24a12 12 0 0 1-12-12v-24a12 12 0 0 1 12-12h24z"/></svg>